<svg width="20" height="24" viewBox="0 0 20 24" fill="none" xmlns="http://www.w3.org/2000/svg" class="wfw_bag">
<path d="M15.7143 7.5V6C15.7143 2.69156 13.1508 0 10 0C6.84911 0 4.28571 2.69156 4.28571 6V7.5H0V20.25C0 22.3211 1.59897 24 3.57143 24H16.4286C18.401 24 20 22.3211 20 20.25V7.5H15.7143ZM7.14286 6C7.14286 4.34578 8.42455 3 10 3C11.5754 3 12.8571 4.34578 12.8571 6V7.5H7.14286V6ZM14.2857 11.625C13.694 11.625 13.2143 11.1213 13.2143 10.5C13.2143 9.87867 13.694 9.375 14.2857 9.375C14.8775 9.375 15.3571 9.87867 15.3571 10.5C15.3571 11.1213 14.8775 11.625 14.2857 11.625ZM5.71429 11.625C5.12254 11.625 4.64286 11.1213 4.64286 10.5C4.64286 9.87867 5.12254 9.375 5.71429 9.375C6.30603 9.375 6.78571 9.87867 6.78571 10.5C6.78571 11.1213 6.30603 11.625 5.71429 11.625Z" fill="#FF0000"/>
</svg>
