<svg width="24" height="24" viewBox="0 0 24 24" fill="none" xmlns="http://www.w3.org/2000/svg" class="wfw_product-icon">
<path d="M0 11.818V2.25C0 1.00734 1.00734 0 2.25 0H11.818C12.4148 3.12036e-06 12.9871 0.237058 13.409 0.659016L23.341 10.591C24.2197 11.4697 24.2197 12.8943 23.341 13.773L13.773 23.341C12.8943 24.2197 11.4697 24.2197 10.591 23.341L0.659016 13.409C0.237058 12.9871 3.12036e-06 12.4148 0 11.818H0ZM5.25 3C4.00735 3 3 4.00734 3 5.25C3 6.49266 4.00735 7.5 5.25 7.5C6.49266 7.5 7.5 6.49266 7.5 5.25C7.5 4.00734 6.49266 3 5.25 3Z" fill="#FF0000"/>
</svg>
