<svg width="22" height="24" viewBox="0 0 22 24" fill="none" xmlns="http://www.w3.org/2000/svg">
<path d="M4.46875 10.5H1.03125C0.461699 10.5 0 11.0037 0 11.625V22.875C0 23.4963 0.461699 24 1.03125 24H4.46875C5.0383 24 5.5 23.4963 5.5 22.875V11.625C5.5 11.0037 5.0383 10.5 4.46875 10.5ZM2.75 22.125C2.18045 22.125 1.71875 21.6213 1.71875 21C1.71875 20.3787 2.18045 19.875 2.75 19.875C3.31955 19.875 3.78125 20.3787 3.78125 21C3.78125 21.6213 3.31955 22.125 2.75 22.125ZM16.5 3.81806C16.5 5.80631 15.3841 6.92156 15.0701 8.25H19.441C20.8761 8.25 21.9933 9.55059 22 10.9733C22.0036 11.8142 21.6757 12.7194 21.1647 13.2795L21.16 13.2846C21.5826 14.3785 21.5139 15.9113 20.76 17.0097C21.133 18.2235 20.757 19.7146 20.0561 20.514C20.2408 21.3389 20.1525 22.0409 19.7919 22.6061C18.9149 23.9806 16.7413 24 14.9032 24L14.781 24C12.7062 23.9992 11.0081 23.175 9.64365 22.5128C8.958 22.1801 8.0615 21.7681 7.3813 21.7545C7.10029 21.7489 6.875 21.4987 6.875 21.1921V11.1716C6.875 11.0216 6.93009 10.8777 7.02788 10.7722C8.73005 8.93733 9.46198 6.99469 10.8571 5.47012C11.4932 4.77487 11.7246 3.72469 11.9482 2.70909C12.1393 1.84186 12.539 0 13.4062 0C14.4375 0 16.5 0.375 16.5 3.81806Z" fill="#FF0000"/>
</svg>
