<svg width="700" height="298" viewBox="0 0 700 298" fill="none" xmlns="http://www.w3.org/2000/svg">
<path fill-rule="evenodd" clip-rule="evenodd" d="M171.446 104.738V141.784H137.92V104.738H122V193.163H137.92V157.326H171.446V193.163H187.364V104.738H171.446Z" fill="#33475B"/>
<path fill-rule="evenodd" clip-rule="evenodd" d="M238.305 164.583C238.305 171.947 232.394 177.94 225.138 177.94C217.878 177.94 211.971 171.947 211.971 164.583V126.709H196.893V164.583C196.893 180.383 209.565 193.236 225.138 193.236C240.707 193.236 253.376 180.383 253.376 164.583V126.709H238.305V164.583Z" fill="#33475B"/>
<path fill-rule="evenodd" clip-rule="evenodd" d="M350.172 130.609C350.172 122.844 355.237 120.383 360.784 120.383C365.248 120.383 371.157 123.83 375.011 128.02L384.897 116.196C379.958 109.421 369.949 104.739 361.747 104.739C345.346 104.739 333.527 114.471 333.527 130.609C333.527 160.541 369.588 151.053 369.588 167.811C369.588 172.979 364.644 177.54 358.978 177.54C350.052 177.54 347.155 173.105 343.056 168.424L332.08 180.001C339.078 188.747 347.759 193.185 358.131 193.185C373.688 193.185 386.231 183.33 386.231 167.929C386.231 134.671 350.172 145.02 350.172 130.609Z" fill="#33475B"/>
<path fill-rule="evenodd" clip-rule="evenodd" d="M573.26 179.038C564.341 179.038 561.809 175.124 561.809 169.126V142.571H575.674V129.112H561.809V111.365L546.495 118.341V172.43C546.495 186.26 555.898 193.237 568.798 193.237C570.728 193.237 573.383 193.111 574.832 192.748L578.571 178.797C576.883 178.915 574.955 179.038 573.26 179.038Z" fill="#33475B"/>
<path fill-rule="evenodd" clip-rule="evenodd" d="M295.675 177.792C286.202 177.792 278.521 169.998 278.521 160.385C278.521 150.773 286.202 142.979 295.675 142.979C305.149 142.979 312.829 150.773 312.829 160.385C312.829 169.998 305.149 177.792 295.675 177.792ZM295.77 127.153C288.291 127.153 283.074 129.356 278.031 134.376V105.267H262.908V159.215C262.908 179.406 277.294 193.236 293.46 193.236C311.43 193.236 327.176 179.16 327.176 160.196C327.176 141.471 312.656 127.153 295.77 127.153Z" fill="#33475B"/>
<mask id="mask0" mask-type="alpha" maskUnits="userSpaceOnUse" x="395" y="126" width="65" height="89">
<path d="M459.965 214.329H395.697V126.359H459.965V214.329Z" fill="white"/>
</mask>
<g mask="url(#mask0)">
<path fill-rule="evenodd" clip-rule="evenodd" d="M428.466 176.615C418.991 176.615 411.31 168.822 411.31 159.209C411.31 149.596 418.991 141.803 428.466 141.803C437.937 141.803 445.618 149.596 445.618 159.209C445.618 168.822 437.937 176.615 428.466 176.615ZM459.965 159.399C459.965 140.434 444.219 126.359 426.249 126.359C410.083 126.359 395.697 140.188 395.697 160.38V214.329H410.82V185.219C415.863 190.24 421.08 192.444 428.559 192.444C445.444 192.444 459.965 178.123 459.965 159.399Z" fill="#33475B"/>
</g>
<mask id="mask1" mask-type="alpha" maskUnits="userSpaceOnUse" x="415" y="83" width="123" height="130">
<path d="M415.261 83H537.031V212.482H415.261V83Z" fill="white"/>
</mask>
<g mask="url(#mask1)">
<path fill-rule="evenodd" clip-rule="evenodd" d="M503.721 176.306C494.289 176.306 486.642 168.547 486.642 158.978C486.642 149.407 494.289 141.648 503.721 141.648C513.153 141.648 520.799 149.407 520.799 158.978C520.799 168.547 513.153 176.306 503.721 176.306ZM508.834 125.615V110.199C512.799 108.299 515.577 104.228 515.577 99.5042V99.1483C515.577 92.6285 510.32 87.2942 503.895 87.2942H503.546C497.12 87.2942 491.863 92.6285 491.863 99.1483V99.5042C491.863 104.228 494.641 108.3 498.606 110.201V125.615C492.702 126.541 487.308 129.012 482.859 132.649L441.146 99.7237C441.421 98.6512 441.614 97.5471 441.616 96.3864C441.622 89.0036 435.733 83.0091 428.454 82.9992C421.178 82.9908 415.269 88.9686 415.261 96.3532C415.253 103.738 421.142 109.732 428.421 109.74C430.792 109.744 432.988 109.06 434.912 107.95L475.943 140.339C472.455 145.684 470.409 152.086 470.409 158.978C470.409 166.193 472.656 172.867 476.451 178.356L463.974 191.019C462.988 190.718 461.965 190.508 460.88 190.508C454.901 190.508 450.052 195.427 450.052 201.494C450.052 207.563 454.901 212.482 460.88 212.482C466.862 212.482 471.709 207.563 471.709 201.494C471.709 200.397 471.502 199.357 471.206 198.356L483.549 185.832C489.151 190.17 496.129 192.778 503.721 192.778C522.119 192.778 537.031 177.645 537.031 158.978C537.031 142.079 524.796 128.118 508.834 125.615Z" fill="#FF7A59"/>
</g>
</svg>
